# 3ds Max Wavefront OBJ Exporter v0.97b - (c)2007 guruware
# File Created: 23.09.2020 00:00:32

#
# object room_
#

v  95.2390 -58.8165 -0.0000
v  95.2390 -29.4098 -0.0000
v  89.4954 -29.4098 -32.5737
v  89.4954 -58.8165 -32.5737
v  72.9573 -29.4098 -61.2184
v  72.9573 -58.8165 -61.2184
v  47.6195 -29.4098 -82.4794
v  47.6195 -58.8165 -82.4794
v  16.5381 -29.4098 -93.7921
v  16.5381 -58.8165 -93.7921
v  -16.5381 -29.4098 -93.7921
v  -16.5381 -58.8165 -93.7921
v  -47.6195 -29.4098 -82.4794
v  -47.6195 -58.8165 -82.4794
v  -72.9573 -29.4098 -61.2184
v  -72.9573 -58.8165 -61.2184
v  -89.4954 -29.4098 -32.5737
v  -89.4954 -58.8165 -32.5737
v  -95.2390 -29.4098 -0.0000
v  -95.2390 -58.8165 -0.0000
v  -89.4954 -29.4098 32.5736
v  -89.4954 -58.8165 32.5736
v  -72.9573 -29.4098 61.2184
v  -72.9573 -58.8165 61.2184
v  -47.6195 -29.4098 82.4793
v  -47.6195 -58.8165 82.4794
v  -16.5381 -29.4098 93.7921
v  -16.5381 -58.8165 93.7921
v  16.5380 -29.4098 93.7921
v  16.5380 -58.8165 93.7921
v  47.6194 -29.4098 82.4794
v  47.6194 -58.8165 82.4794
v  72.9572 -29.4098 61.2185
v  72.9572 -58.8165 61.2185
v  89.4953 -29.4098 32.5737
v  89.4953 -58.8165 32.5737
v  -95.2390 -0.0032 -0.0000
v  -89.4954 -0.0032 32.5736
v  -72.9573 -0.0032 61.2184
v  -47.6195 -0.0032 82.4794
v  -16.5381 -0.0032 93.7921
v  16.5380 -0.0032 93.7921
v  47.6194 -0.0032 82.4794
v  72.9572 -0.0032 61.2185
v  89.4953 -0.0032 32.5737
v  95.2390 -0.0032 -0.0000
v  44.7477 -58.8165 -16.2868
v  47.6195 -58.8165 -0.0000
v  36.4786 -58.8165 -30.6092
v  23.8097 -58.8165 -41.2397
v  8.2690 -58.8165 -46.8960
v  -8.2690 -58.8165 -46.8960
v  -23.8097 -58.8165 -41.2397
v  -36.4786 -58.8165 -30.6092
v  -44.7477 -58.8165 -16.2868
v  -47.6195 -58.8165 -0.0000
v  -44.7477 -58.8165 16.2868
v  -36.4787 -58.8165 30.6092
v  -23.8098 -58.8165 41.2397
v  -8.2691 -58.8165 46.8960
v  8.2690 -58.8165 46.8960
v  23.8097 -58.8165 41.2397
v  36.4786 -58.8165 30.6092
v  44.7477 -58.8165 16.2869
v  3.5729 -58.8165 -1.3004
v  3.8022 -58.8165 -0.0000
v  2.9126 -58.8165 -2.4440
v  1.9011 -58.8165 -3.2928
v  0.6602 -58.8165 -3.7444
v  -0.6602 -58.8165 -3.7444
v  -1.9011 -58.8165 -3.2928
v  -2.9126 -58.8165 -2.4440
v  -3.5729 -58.8165 -1.3004
v  -3.8022 -58.8165 -0.0000
v  -3.5729 -58.8165 1.3004
v  -2.9126 -58.8165 2.4440
v  -1.9011 -58.8165 3.2928
v  -0.6602 -58.8165 3.7444
v  0.6602 -58.8165 3.7444
v  1.9011 -58.8165 3.2928
v  2.9126 -58.8165 2.4440
v  3.5729 -58.8165 1.3004
v  -671.3615 -0.0032 0.8064
v  -671.3615 -0.0032 808.7654
v  -522.1654 -0.0032 808.7654
v  -340.8194 -0.0032 808.7654
v  -118.3655 -0.0032 808.7654
v  118.3650 -0.0032 808.7654
v  340.8189 -0.0032 808.7654
v  522.1652 -0.0032 808.7654
v  671.3616 -0.0032 808.7654
v  671.3616 -0.0032 0.8065
v  671.3616 -29.8476 0.8065
v  -671.3615 -29.8476 0.8064
v  568.1168 -29.4828 -649.1557
v  533.8551 -29.4828 -649.1557
v  435.2027 -29.4828 -649.1557
v  284.0583 -29.4828 -649.1557
v  98.6524 -29.4828 -649.1557
v  -98.6525 -29.4828 -649.1557
v  -284.0584 -29.4828 -649.1557
v  -435.2027 -29.4828 -649.1557
v  -533.8551 -29.4828 -649.1557
v  -568.1168 -29.4828 -649.1557
v  671.3616 -29.4828 -649.1557
v  -671.3615 -29.4828 -649.1557
# 106 vertices

vn -1.0000 0.0000 -0.0000
vn -0.9983 0.0000 -0.0587
vn -0.9397 0.0000 0.3420
vn -0.7660 0.0000 0.6428
vn -0.5000 0.0000 0.8660
vn -0.1736 0.0000 0.9848
vn 0.1736 0.0000 0.9848
vn 0.5000 0.0000 0.8660
vn 0.7660 0.0000 0.6428
vn 0.9397 0.0000 0.3420
vn 0.9983 0.0000 -0.0587
vn 1.0000 0.0000 -0.0000
vn 0.9397 0.0000 -0.3420
vn 0.7660 0.0000 -0.6428
vn 0.5000 0.0000 -0.8660
vn 0.1736 0.0000 -0.9848
vn -0.1736 0.0000 -0.9848
vn -0.5000 0.0000 -0.8660
vn -0.7660 0.0000 -0.6428
vn -0.9397 0.0000 -0.3420
vn 0.9848 0.0000 -0.1736
vn -0.9848 0.0000 -0.1736
vn 0.0000 1.0000 -0.0000
vn 0.0014 0.0000 -1.0000
vn -0.0014 0.0000 -1.0000
vn 0.0001 1.0000 -0.0000
vn 0.0004 1.0000 0.0003
vn 0.0000 1.0000 -0.0001
vn 0.0001 1.0000 -0.0001
vn -0.0001 1.0000 -0.0001
vn -0.0001 1.0000 -0.0000
vn -0.0005 1.0000 0.0002
vn -0.0002 1.0000 0.0003
vn 0.0008 1.0000 0.0006
vn 0.0004 1.0000 0.0002
vn -0.0007 1.0000 0.0005
vn 0.0000 1.0000 0.0006
# 37 vertex normals

vt 0.7500 0.0000 1.0000
vt 0.7500 0.3333 1.0000
vt 0.8056 0.3333 1.0000
vt 0.8056 0.0000 1.0000
vt 0.8611 0.3333 1.0000
vt 0.8611 0.0000 1.0000
vt 0.9167 0.3333 1.0000
vt 0.9167 0.0000 1.0000
vt 0.9722 0.3333 1.0000
vt 0.9722 0.0000 1.0000
vt 1.0278 0.3333 1.0000
vt 1.0278 0.0000 1.0000
vt 0.0278 0.0000 1.0000
vt 0.0278 0.3333 1.0000
vt 0.0833 0.3333 1.0000
vt 0.0833 0.0000 1.0000
vt 0.1389 0.3333 1.0000
vt 0.1389 0.0000 1.0000
vt 0.1944 0.3333 1.0000
vt 0.1944 0.0000 1.0000
vt 0.2500 0.3333 1.0000
vt 0.2500 0.0000 1.0000
vt 0.3056 0.3333 1.0000
vt 0.3056 0.0000 1.0000
vt 0.3611 0.3333 1.0000
vt 0.3611 0.0000 1.0000
vt 0.4167 0.3333 1.0000
vt 0.4167 0.0000 1.0000
vt 0.4722 0.3333 1.0000
vt 0.4722 0.0000 1.0000
vt 0.5278 0.3333 1.0000
vt 0.5278 0.0000 1.0000
vt 0.5833 0.3333 1.0000
vt 0.5833 0.0000 1.0000
vt 0.6389 0.3333 1.0000
vt 0.6389 0.0000 1.0000
vt 0.6944 0.3333 1.0000
vt 0.6944 0.0000 1.0000
vt 0.2500 0.6667 1.0000
vt 0.3056 0.6667 1.0000
vt 0.3611 0.6667 1.0000
vt 0.4167 0.6667 1.0000
vt 0.4722 0.6667 1.0000
vt 0.5278 0.6667 1.0000
vt 0.5833 0.6667 1.0000
vt 0.6389 0.6667 1.0000
vt 0.6944 0.6667 1.0000
vt 0.7500 0.6667 1.0000
vt 0.3290 0.9698 -0.2500
vt 0.4145 0.7349 -0.2500
vt 0.5000 0.7500 -0.2500
vt 0.5000 1.0000 -0.2500
vt 0.1786 0.8830 -0.2500
vt 0.3393 0.6915 -0.2500
vt 0.0670 0.7500 -0.2500
vt 0.2835 0.6250 -0.2500
vt 0.0076 0.5868 -0.2500
vt 0.2538 0.5434 -0.2500
vt 0.0076 0.4132 -0.2500
vt 0.2538 0.4566 -0.2500
vt 0.0670 0.2500 -0.2500
vt 0.2835 0.3750 -0.2500
vt 0.1786 0.1170 -0.2500
vt 0.3393 0.3085 -0.2500
vt 0.3290 0.0302 -0.2500
vt 0.4145 0.2651 -0.2500
vt 0.5000 0.0000 -0.2500
vt 0.5000 0.2500 -0.2500
vt 0.6710 0.0302 -0.2500
vt 0.5855 0.2651 -0.2500
vt 0.8214 0.1170 -0.2500
vt 0.6607 0.3085 -0.2500
vt 0.9330 0.2500 -0.2500
vt 0.7165 0.3750 -0.2500
vt 0.9924 0.4132 -0.2500
vt 0.7462 0.4566 -0.2500
vt 0.9924 0.5868 -0.2500
vt 0.7462 0.5434 -0.2500
vt 0.9330 0.7500 -0.2500
vt 0.7165 0.6250 -0.2500
vt 0.8214 0.8830 -0.2500
vt 0.6607 0.6915 -0.2500
vt 0.6710 0.9698 -0.2500
vt 0.5855 0.7349 -0.2500
vt 0.4932 0.5188 -0.2500
vt 0.5000 0.5200 -0.2500
vt 0.4872 0.5153 -0.2500
vt 0.4827 0.5100 -0.2500
vt 0.4803 0.5035 -0.2500
vt 0.4803 0.4965 -0.2500
vt 0.4827 0.4900 -0.2500
vt 0.4872 0.4847 -0.2500
vt 0.4932 0.4812 -0.2500
vt 0.5000 0.4800 -0.2500
vt 0.5068 0.4812 -0.2500
vt 0.5128 0.4847 -0.2500
vt 0.5173 0.4900 -0.2500
vt 0.5197 0.4965 -0.2500
vt 0.5197 0.5035 -0.2500
vt 0.5173 0.5100 -0.2500
vt 0.5128 0.5153 -0.2500
vt 0.5068 0.5188 -0.2500
# 102 texture coords

g room_
s 1
f 1/1/1 2/2/2 3/3/3 
f 3/3/3 4/4/3 1/1/1 
f 4/4/3 3/3/3 5/5/4 
f 5/5/4 6/6/4 4/4/3 
f 6/6/4 5/5/4 7/7/5 
f 7/7/5 8/8/5 6/6/4 
f 8/8/5 7/7/5 9/9/6 
f 9/9/6 10/10/6 8/8/5 
f 10/10/6 9/9/6 11/11/7 
f 11/11/7 12/12/7 10/10/6 
f 12/13/7 11/14/7 13/15/8 
f 13/15/8 14/16/8 12/13/7 
f 14/16/8 13/15/8 15/17/9 
f 15/17/9 16/18/9 14/16/8 
f 16/18/9 15/17/9 17/19/10 
f 17/19/10 18/20/10 16/18/9 
f 18/20/10 17/19/10 19/21/11 
f 19/21/11 20/22/12 18/20/10 
f 20/22/12 19/21/11 21/23/13 
f 21/23/13 22/24/13 20/22/12 
f 22/24/13 21/23/13 23/25/14 
f 23/25/14 24/26/14 22/24/13 
f 24/26/14 23/25/14 25/27/15 
f 25/27/15 26/28/15 24/26/14 
f 26/28/15 25/27/15 27/29/16 
f 27/29/16 28/30/16 26/28/15 
f 28/30/16 27/29/16 29/31/17 
f 29/31/17 30/32/17 28/30/16 
f 30/32/17 29/31/17 31/33/18 
f 31/33/18 32/34/18 30/32/17 
f 32/34/18 31/33/18 33/35/19 
f 33/35/19 34/36/19 32/34/18 
f 34/36/19 33/35/19 35/37/20 
f 35/37/20 36/38/20 34/36/19 
f 36/38/20 35/37/20 2/2/2 
f 2/2/2 1/1/1 36/38/20 
f 19/21/11 37/39/21 38/40/13 
f 38/40/13 21/23/13 19/21/11 
f 21/23/13 38/40/13 39/41/14 
f 39/41/14 23/25/14 21/23/13 
f 23/25/14 39/41/14 40/42/15 
f 40/42/15 25/27/15 23/25/14 
f 25/27/15 40/42/15 41/43/16 
f 41/43/16 27/29/16 25/27/15 
f 27/29/16 41/43/16 42/44/17 
f 42/44/17 29/31/17 27/29/16 
f 29/31/17 42/44/17 43/45/18 
f 43/45/18 31/33/18 29/31/17 
f 31/33/18 43/45/18 44/46/19 
f 44/46/19 33/35/19 31/33/18 
f 33/35/19 44/46/19 45/47/20 
f 45/47/20 35/37/20 33/35/19 
f 35/37/20 45/47/20 46/48/22 
f 46/48/22 2/2/2 35/37/20 
s 2
f 4/49/23 47/50/23 48/51/23 
f 48/51/23 1/52/23 4/49/23 
f 6/53/23 49/54/23 47/50/23 
f 47/50/23 4/49/23 6/53/23 
f 8/55/23 50/56/23 49/54/23 
f 49/54/23 6/53/23 8/55/23 
f 10/57/23 51/58/23 50/56/23 
f 50/56/23 8/55/23 10/57/23 
f 12/59/23 52/60/23 51/58/23 
f 51/58/23 10/57/23 12/59/23 
f 14/61/23 53/62/23 52/60/23 
f 52/60/23 12/59/23 14/61/23 
f 16/63/23 54/64/23 53/62/23 
f 53/62/23 14/61/23 16/63/23 
f 18/65/23 55/66/23 54/64/23 
f 54/64/23 16/63/23 18/65/23 
f 20/67/23 56/68/23 55/66/23 
f 55/66/23 18/65/23 20/67/23 
f 22/69/23 57/70/23 56/68/23 
f 56/68/23 20/67/23 22/69/23 
f 24/71/23 58/72/23 57/70/23 
f 57/70/23 22/69/23 24/71/23 
f 26/73/23 59/74/23 58/72/23 
f 58/72/23 24/71/23 26/73/23 
f 28/75/23 60/76/23 59/74/23 
f 59/74/23 26/73/23 28/75/23 
f 30/77/23 61/78/23 60/76/23 
f 60/76/23 28/75/23 30/77/23 
f 32/79/23 62/80/23 61/78/23 
f 61/78/23 30/77/23 32/79/23 
f 34/81/23 63/82/23 62/80/23 
f 62/80/23 32/79/23 34/81/23 
f 36/83/23 64/84/23 63/82/23 
f 63/82/23 34/81/23 36/83/23 
f 1/52/23 48/51/23 64/84/23 
f 64/84/23 36/83/23 1/52/23 
f 47/50/23 65/85/23 66/86/23 
f 66/86/23 48/51/23 47/50/23 
f 49/54/23 67/87/23 65/85/23 
f 65/85/23 47/50/23 49/54/23 
f 50/56/23 68/88/23 67/87/23 
f 67/87/23 49/54/23 50/56/23 
f 51/58/23 69/89/23 68/88/23 
f 68/88/23 50/56/23 51/58/23 
f 52/60/23 70/90/23 69/89/23 
f 69/89/23 51/58/23 52/60/23 
f 53/62/23 71/91/23 70/90/23 
f 70/90/23 52/60/23 53/62/23 
f 54/64/23 72/92/23 71/91/23 
f 71/91/23 53/62/23 54/64/23 
f 55/66/23 73/93/23 72/92/23 
f 72/92/23 54/64/23 55/66/23 
f 56/68/23 74/94/23 73/93/23 
f 73/93/23 55/66/23 56/68/23 
f 57/70/23 75/95/23 74/94/23 
f 74/94/23 56/68/23 57/70/23 
f 58/72/23 76/96/23 75/95/23 
f 75/95/23 57/70/23 58/72/23 
f 59/74/23 77/97/23 76/96/23 
f 76/96/23 58/72/23 59/74/23 
f 60/76/23 78/98/23 77/97/23 
f 77/97/23 59/74/23 60/76/23 
f 61/78/23 79/99/23 78/98/23 
f 78/98/23 60/76/23 61/78/23 
f 62/80/23 80/100/23 79/99/23 
f 79/99/23 61/78/23 62/80/23 
f 63/82/23 81/101/23 80/100/23 
f 80/100/23 62/80/23 63/82/23 
f 64/84/23 82/102/23 81/101/23 
f 81/101/23 63/82/23 64/84/23 
f 48/51/23 66/86/23 82/102/23 
f 82/102/23 64/84/23 48/51/23 
f 38/40/23 37/39/23 83/39/23 
f 83/39/23 84/40/23 38/40/23 
f 39/41/23 38/40/23 84/40/23 
f 84/40/23 85/41/23 39/41/23 
f 40/42/23 39/41/23 85/41/23 
f 85/41/23 86/42/23 40/42/23 
f 41/43/23 40/42/23 86/42/23 
f 86/42/23 87/43/23 41/43/23 
f 42/44/23 41/43/23 87/43/23 
f 87/43/23 88/44/23 42/44/23 
f 43/45/23 42/44/23 88/44/23 
f 88/44/23 89/45/23 43/45/23 
f 44/46/23 43/45/23 89/45/23 
f 89/45/23 90/46/23 44/46/23 
f 45/47/23 44/46/23 90/46/23 
f 90/46/23 91/47/23 45/47/23 
f 46/48/23 45/47/23 91/47/23 
f 91/47/23 92/48/23 46/48/23 
s 4
f 46/48/24 92/48/24 93/48/24 
f 93/48/24 2/48/24 46/48/24 
f 83/39/25 37/39/25 19/39/25 
f 19/39/25 94/39/25 83/39/25 
s 2
f 3/3/26 2/2/27 95/2/28 
f 95/2/28 96/3/28 3/3/26 
f 5/5/29 3/3/26 96/3/28 
f 96/3/28 97/5/28 5/5/29 
f 7/7/29 5/5/29 97/5/28 
f 97/5/28 98/7/28 7/7/29 
f 9/9/28 7/7/29 98/7/28 
f 98/7/28 99/9/28 9/9/28 
f 11/11/28 9/9/28 99/9/28 
f 99/9/28 100/11/28 11/11/28 
f 13/15/30 11/14/28 100/14/28 
f 100/14/28 101/15/28 13/15/30 
f 15/17/30 13/15/30 101/15/28 
f 101/15/28 102/17/28 15/17/30 
f 17/19/31 15/17/30 102/17/28 
f 102/17/28 103/19/28 17/19/31 
f 19/21/32 17/19/31 103/19/28 
f 103/19/28 104/21/33 19/21/32 
f 2/48/27 93/48/34 105/48/35 
f 105/48/35 95/48/28 2/48/27 
f 94/39/36 19/39/32 104/39/33 
f 104/39/33 106/39/37 94/39/36 
f 66/86/23 65/85/23 67/87/23 
f 66/86/23 67/87/23 68/88/23 
f 66/86/23 68/88/23 69/89/23 
f 66/86/23 69/89/23 70/90/23 
f 66/86/23 70/90/23 71/91/23 
f 66/86/23 71/91/23 72/92/23 
f 66/86/23 72/92/23 73/93/23 
f 66/86/23 73/93/23 74/94/23 
f 66/86/23 74/94/23 75/95/23 
f 66/86/23 75/95/23 76/96/23 
f 66/86/23 76/96/23 77/97/23 
f 66/86/23 77/97/23 78/98/23 
f 66/86/23 78/98/23 79/99/23 
f 66/86/23 79/99/23 80/100/23 
f 66/86/23 80/100/23 81/101/23 
f 66/86/23 81/101/23 82/102/23 
# 186 faces

#
# object topworld_
#

v  38.6500 274.5405 -2771.4316
v  -3026.3340 274.5405 -740.7076
v  -144.4619 274.5405 -291.4109
v  -117.4001 274.5405 -318.0778
v  -117.4001 262.9957 -318.0778
v  38.6500 262.9957 -2771.4316
v  -144.4619 262.9957 -291.4109
v  -3026.3340 262.9957 -740.7076
# 8 vertices

vn -0.0000 1.0000 -0.0000
vn 0.0000 1.0000 -0.0000
vn 0.9980 0.0000 0.0635
vn 0.7019 0.0000 0.7123
vn -0.1540 0.0000 0.9881
vn -0.5523 0.0000 -0.8336
# 6 vertex normals

vt 1.0000 0.0000 0.0000
vt 0.0000 0.0000 0.0000
vt 0.0000 1.0000 0.0000
vt 1.0000 1.0000 0.0000
# 4 texture coords

g topworld_
s 2
f 107/103/38 108/104/38 109/105/38 
f 109/105/38 110/106/39 107/103/38 
s off
f 107/103/40 110/106/40 111/106/40 
f 111/106/40 112/103/40 107/103/40 
f 110/106/41 109/105/41 113/105/41 
f 113/105/41 111/106/41 110/106/41 
f 109/105/42 108/104/42 114/104/42 
f 114/104/42 113/105/42 109/105/42 
f 108/104/43 107/103/43 112/103/43 
f 112/103/43 114/104/43 108/104/43 
# 10 faces

