# 3ds Max Wavefront OBJ Exporter v0.97b - (c)2007 guruware
# File Created: 05.09.2020 19:15:14

#
# object room_
#

v  95.2390 -58.8165 -0.0000
v  95.2390 -29.4098 -0.0000
v  89.4954 -29.4098 -32.5737
v  89.4954 -58.8165 -32.5737
v  72.9573 -29.4098 -61.2184
v  72.9573 -58.8165 -61.2184
v  47.6195 -29.4098 -82.4794
v  47.6195 -58.8165 -82.4794
v  16.5381 -29.4098 -93.7921
v  16.5381 -58.8165 -93.7921
v  -16.5381 -29.4098 -93.7921
v  -16.5381 -58.8165 -93.7921
v  -47.6195 -29.4098 -82.4794
v  -47.6195 -58.8165 -82.4794
v  -72.9573 -29.4098 -61.2184
v  -72.9573 -58.8165 -61.2184
v  -89.4954 -29.4098 -32.5737
v  -89.4954 -58.8165 -32.5737
v  -95.2390 -29.4098 -0.0000
v  -95.2390 -58.8165 -0.0000
v  -89.4954 -29.4098 32.5736
v  -89.4954 -58.8165 32.5736
v  -72.9573 -29.4098 61.2184
v  -72.9573 -58.8165 61.2184
v  -47.6195 -29.4098 82.4793
v  -47.6195 -58.8165 82.4794
v  -16.5381 -29.4098 93.7921
v  -16.5381 -58.8165 93.7921
v  16.5380 -29.4098 93.7921
v  16.5380 -58.8165 93.7921
v  47.6194 -29.4098 82.4794
v  47.6194 -58.8165 82.4794
v  72.9572 -29.4098 61.2185
v  72.9572 -58.8165 61.2185
v  89.4953 -29.4098 32.5737
v  89.4953 -58.8165 32.5737
v  -95.2390 -0.0032 -0.0000
v  -89.4954 -0.0032 32.5736
v  -72.9573 -0.0032 61.2184
v  -47.6195 -0.0032 82.4794
v  -16.5381 -0.0032 93.7921
v  16.5380 -0.0032 93.7921
v  47.6194 -0.0032 82.4794
v  72.9572 -0.0032 61.2185
v  89.4953 -0.0032 32.5737
v  95.2390 -0.0032 -0.0000
v  44.7477 -58.8165 -16.2868
v  47.6195 -58.8165 -0.0000
v  36.4786 -58.8165 -30.6092
v  23.8097 -58.8165 -41.2397
v  8.2690 -58.8165 -46.8960
v  -8.2690 -58.8165 -46.8960
v  -23.8097 -58.8165 -41.2397
v  -36.4786 -58.8165 -30.6092
v  -44.7477 -58.8165 -16.2868
v  -47.6195 -58.8165 -0.0000
v  -44.7477 -58.8165 16.2868
v  -36.4787 -58.8165 30.6092
v  -23.8098 -58.8165 41.2397
v  -8.2691 -58.8165 46.8960
v  8.2690 -58.8165 46.8960
v  23.8097 -58.8165 41.2397
v  36.4786 -58.8165 30.6092
v  44.7477 -58.8165 16.2869
v  0.0000 -58.8165 -0.0000
v  -681.6384 -0.0032 0.8064
v  -640.5306 -0.0032 233.9406
v  -522.1655 -0.0032 438.9551
v  -340.8194 -0.0032 591.1226
v  -118.3655 -0.0032 672.0895
v  118.3650 -0.0032 672.0895
v  340.8189 -0.0032 591.1229
v  522.1651 -0.0032 438.9556
v  640.5306 -0.0032 233.9413
v  681.6385 -0.0032 0.8065
v  681.6385 -29.8476 0.8065
v  -681.6384 -29.8476 0.8064
v  568.1168 -29.4098 -450.9059
v  533.8551 -29.4098 -450.9059
v  435.2027 -29.4098 -450.9059
v  284.0583 -29.4098 -450.9059
v  98.6524 -29.4098 -450.9059
v  -98.6525 -29.4098 -450.9059
v  -284.0584 -29.4098 -450.9059
v  -435.2027 -29.4098 -450.9059
v  -533.8551 -29.4098 -450.9059
v  -568.1168 -29.4098 -450.9059
v  681.6385 -29.8476 -426.1414
v  -681.6384 -29.8476 -426.1416
v  -88.5573 14.8968 -27.1592
v  -59.4921 14.8968 -68.6686
v  -129.7893 14.8968 -117.8912
v  -158.8546 14.8968 -76.3818
v  -88.5573 -0.3793 -27.1592
v  -158.8546 -0.3793 -76.3818
v  -129.7893 -0.3793 -117.8912
v  -59.4921 -0.3793 -68.6686
v  -25.8713 44.2840 -91.7592
v  24.8024 44.2840 -91.7592
v  24.8024 44.2840 -177.5763
v  -25.8713 44.2840 -177.5763
v  -25.8713 29.0079 -91.7592
v  -25.8713 29.0079 -177.5763
v  24.8024 29.0079 -177.5763
v  24.8024 29.0079 -91.7592
v  68.6043 78.0246 -69.1250
v  90.0199 78.0246 -23.1991
v  167.7966 78.0246 -59.4669
v  146.3810 78.0246 -105.3929
v  68.6043 62.7485 -69.1250
v  146.3810 62.7485 -105.3929
v  167.7966 62.7485 -59.4669
v  90.0199 62.7485 -23.1991
# 113 vertices

vn -1.0000 -0.0000 -0.0000
vn -0.9983 -0.0000 -0.0587
vn -0.9397 -0.0000 0.3420
vn -0.7660 -0.0000 0.6428
vn -0.5000 -0.0000 0.8660
vn -0.1736 -0.0000 0.9848
vn 0.1736 -0.0000 0.9848
vn 0.5000 -0.0000 0.8660
vn 0.7660 -0.0000 0.6428
vn 0.9397 -0.0000 0.3420
vn 0.9983 -0.0000 -0.0587
vn 1.0000 -0.0000 0.0000
vn 0.9397 0.0000 -0.3420
vn 0.9397 -0.0000 -0.3420
vn 0.7660 0.0000 -0.6428
vn 0.7660 -0.0000 -0.6428
vn 0.5000 -0.0000 -0.8660
vn 0.1736 -0.0000 -0.9848
vn -0.1736 0.0000 -0.9848
vn -0.1736 -0.0000 -0.9848
vn -0.5000 -0.0000 -0.8660
vn -0.7660 0.0000 -0.6428
vn -0.7660 -0.0000 -0.6428
vn -0.9397 0.0000 -0.3420
vn -0.9397 -0.0000 -0.3420
vn 0.9848 0.0000 -0.1736
vn 0.5000 0.0000 -0.8660
vn 0.1736 0.0000 -0.9848
vn -0.5000 0.0000 -0.8660
vn -0.9848 0.0000 -0.1736
vn 0.0000 1.0000 -0.0000
vn 0.0014 0.0000 -1.0000
vn 0.0014 -0.0000 -1.0000
vn -0.0014 -0.0000 -1.0000
vn -0.0014 0.0000 -1.0000
vn -0.0000 1.0000 -0.0000
vn 0.0007 1.0000 -0.0000
vn 0.0031 1.0000 0.0033
vn -0.0007 1.0000 0.0008
vn -0.0039 1.0000 -0.0000
vn 0.0000 -1.0000 -0.0000
vn 0.8192 0.0000 0.5736
vn 0.5736 0.0000 -0.8192
vn -0.8192 0.0000 -0.5736
vn -0.5736 0.0000 0.8192
vn 0.0000 0.0000 1.0000
vn 1.0000 0.0000 -0.0000
vn 0.0000 0.0000 -1.0000
vn -1.0000 0.0000 -0.0000
vn -0.9063 0.0000 0.4226
vn 0.4226 0.0000 0.9063
vn 0.9063 0.0000 -0.4226
vn -0.4226 0.0000 -0.9063
# 53 vertex normals

vt 0.7500 0.0000 1.0000
vt 0.7500 0.3333 1.0000
vt 0.8056 0.3333 1.0000
vt 0.8056 0.0000 1.0000
vt 0.8611 0.3333 1.0000
vt 0.8611 0.0000 1.0000
vt 0.9167 0.3333 1.0000
vt 0.9167 0.0000 1.0000
vt 0.9722 0.3333 1.0000
vt 0.9722 0.0000 1.0000
vt 1.0278 0.3333 1.0000
vt 1.0278 0.0000 1.0000
vt 0.0278 0.0000 1.0000
vt 0.0278 0.3333 1.0000
vt 0.0833 0.3333 1.0000
vt 0.0833 0.0000 1.0000
vt 0.1389 0.3333 1.0000
vt 0.1389 0.0000 1.0000
vt 0.1944 0.3333 1.0000
vt 0.1944 0.0000 1.0000
vt 0.2500 0.3333 1.0000
vt 0.2500 0.0000 1.0000
vt 0.3056 0.3333 1.0000
vt 0.3056 0.0000 1.0000
vt 0.3611 0.3333 1.0000
vt 0.3611 0.0000 1.0000
vt 0.4167 0.3333 1.0000
vt 0.4167 0.0000 1.0000
vt 0.4722 0.3333 1.0000
vt 0.4722 0.0000 1.0000
vt 0.5278 0.3333 1.0000
vt 0.5278 0.0000 1.0000
vt 0.5833 0.3333 1.0000
vt 0.5833 0.0000 1.0000
vt 0.6389 0.3333 1.0000
vt 0.6389 0.0000 1.0000
vt 0.6944 0.3333 1.0000
vt 0.6944 0.0000 1.0000
vt 0.2500 0.6667 1.0000
vt 0.3056 0.6667 1.0000
vt 0.3611 0.6667 1.0000
vt 0.4167 0.6667 1.0000
vt 0.4722 0.6667 1.0000
vt 0.5278 0.6667 1.0000
vt 0.5833 0.6667 1.0000
vt 0.6389 0.6667 1.0000
vt 0.6944 0.6667 1.0000
vt 0.7500 0.6667 1.0000
vt 0.3290 0.9698 -0.2500
vt 0.4145 0.7349 -0.2500
vt 0.5000 0.7500 -0.2500
vt 0.5000 1.0000 -0.2500
vt 0.1786 0.8830 -0.2500
vt 0.3393 0.6915 -0.2500
vt 0.0670 0.7500 -0.2500
vt 0.2835 0.6250 -0.2500
vt 0.0076 0.5868 -0.2500
vt 0.2538 0.5434 -0.2500
vt 0.0076 0.4132 -0.2500
vt 0.2538 0.4566 -0.2500
vt 0.0670 0.2500 -0.2500
vt 0.2835 0.3750 -0.2500
vt 0.1786 0.1170 -0.2500
vt 0.3393 0.3085 -0.2500
vt 0.3290 0.0302 -0.2500
vt 0.4145 0.2651 -0.2500
vt 0.5000 0.0000 -0.2500
vt 0.5000 0.2500 -0.2500
vt 0.6710 0.0302 -0.2500
vt 0.5855 0.2651 -0.2500
vt 0.8214 0.1170 -0.2500
vt 0.6607 0.3085 -0.2500
vt 0.9330 0.2500 -0.2500
vt 0.7165 0.3750 -0.2500
vt 0.9924 0.4132 -0.2500
vt 0.7462 0.4566 -0.2500
vt 0.9924 0.5868 -0.2500
vt 0.7462 0.5434 -0.2500
vt 0.9330 0.7500 -0.2500
vt 0.7165 0.6250 -0.2500
vt 0.8214 0.8830 -0.2500
vt 0.6607 0.6915 -0.2500
vt 0.6710 0.9698 -0.2500
vt 0.5855 0.7349 -0.2500
vt 0.5000 0.5000 -0.2500
vt 1.0000 0.0000 0.0000
vt 0.0000 0.0000 0.0000
vt 0.0000 1.0000 0.0000
vt 1.0000 1.0000 0.0000
# 89 texture coords

g room_
s 8
f 1/1/1 2/2/2 3/3/3
f 3/3/3 4/4/3 1/1/1
f 4/4/3 3/3/3 5/5/4
f 5/5/4 6/6/4 4/4/3
f 6/6/4 5/5/4 7/7/5
f 7/7/5 8/8/5 6/6/4
f 8/8/5 7/7/5 9/9/6
f 9/9/6 10/10/6 8/8/5
f 10/10/6 9/9/6 11/11/7
f 11/11/7 12/12/7 10/10/6
f 12/13/7 11/14/7 13/15/8
f 13/15/8 14/16/8 12/13/7
f 14/16/8 13/15/8 15/17/9
f 15/17/9 16/18/9 14/16/8
f 16/18/9 15/17/9 17/19/10
f 17/19/10 18/20/10 16/18/9
f 18/20/10 17/19/10 19/21/11
f 19/21/11 20/22/12 18/20/10
f 20/22/12 19/21/11 21/23/13
f 21/23/13 22/24/14 20/22/12
f 22/24/14 21/23/13 23/25/15
f 23/25/15 24/26/16 22/24/14
f 24/26/16 23/25/15 25/27/17
f 25/27/17 26/28/17 24/26/16
f 26/28/17 25/27/17 27/29/18
f 27/29/18 28/30/18 26/28/17
f 28/30/18 27/29/18 29/31/19
f 29/31/19 30/32/20 28/30/18
f 30/32/20 29/31/19 31/33/21
f 31/33/21 32/34/21 30/32/20
f 32/34/21 31/33/21 33/35/22
f 33/35/22 34/36/23 32/34/21
f 34/36/23 33/35/22 35/37/24
f 35/37/24 36/38/25 34/36/23
f 36/38/25 35/37/24 2/2/2
f 2/2/2 1/1/1 36/38/25
f 19/21/11 37/39/26 38/40/13
f 38/40/13 21/23/13 19/21/11
f 21/23/13 38/40/13 39/41/15
f 39/41/15 23/25/15 21/23/13
f 23/25/15 39/41/15 40/42/27
f 40/42/27 25/27/17 23/25/15
f 25/27/17 40/42/27 41/43/28
f 41/43/28 27/29/18 25/27/17
f 27/29/18 41/43/28 42/44/19
f 42/44/19 29/31/19 27/29/18
f 29/31/19 42/44/19 43/45/29
f 43/45/29 31/33/21 29/31/19
f 31/33/21 43/45/29 44/46/22
f 44/46/22 33/35/22 31/33/21
f 33/35/22 44/46/22 45/47/24
f 45/47/24 35/37/24 33/35/22
f 35/37/24 45/47/24 46/48/30
f 46/48/30 2/2/2 35/37/24
s 1
f 4/49/31 47/50/31 48/51/31
f 48/51/31 1/52/31 4/49/31
f 6/53/31 49/54/31 47/50/31
f 47/50/31 4/49/31 6/53/31
f 8/55/31 50/56/31 49/54/31
f 49/54/31 6/53/31 8/55/31
f 10/57/31 51/58/31 50/56/31
f 50/56/31 8/55/31 10/57/31
f 12/59/31 52/60/31 51/58/31
f 51/58/31 10/57/31 12/59/31
f 14/61/31 53/62/31 52/60/31
f 52/60/31 12/59/31 14/61/31
f 16/63/31 54/64/31 53/62/31
f 53/62/31 14/61/31 16/63/31
f 18/65/31 55/66/31 54/64/31
f 54/64/31 16/63/31 18/65/31
f 20/67/31 56/68/31 55/66/31
f 55/66/31 18/65/31 20/67/31
f 22/69/31 57/70/31 56/68/31
f 56/68/31 20/67/31 22/69/31
f 24/71/31 58/72/31 57/70/31
f 57/70/31 22/69/31 24/71/31
f 26/73/31 59/74/31 58/72/31
f 58/72/31 24/71/31 26/73/31
f 28/75/31 60/76/31 59/74/31
f 59/74/31 26/73/31 28/75/31
f 30/77/31 61/78/31 60/76/31
f 60/76/31 28/75/31 30/77/31
f 32/79/31 62/80/31 61/78/31
f 61/78/31 30/77/31 32/79/31
f 34/81/31 63/82/31 62/80/31
f 62/80/31 32/79/31 34/81/31
f 36/83/31 64/84/31 63/82/31
f 63/82/31 34/81/31 36/83/31
f 1/52/31 48/51/31 64/84/31
f 64/84/31 36/83/31 1/52/31
f 47/50/31 65/85/31 48/51/31
f 49/54/31 65/85/31 47/50/31
f 50/56/31 65/85/31 49/54/31
f 51/58/31 65/85/31 50/56/31
f 52/60/31 65/85/31 51/58/31
f 53/62/31 65/85/31 52/60/31
f 54/64/31 65/85/31 53/62/31
f 55/66/31 65/85/31 54/64/31
f 56/68/31 65/85/31 55/66/31
f 57/70/31 65/85/31 56/68/31
f 58/72/31 65/85/31 57/70/31
f 59/74/31 65/85/31 58/72/31
f 60/76/31 65/85/31 59/74/31
f 61/78/31 65/85/31 60/76/31
f 62/80/31 65/85/31 61/78/31
f 63/82/31 65/85/31 62/80/31
f 64/84/31 65/85/31 63/82/31
f 48/51/31 65/85/31 64/84/31
s off
f 38/40/31 37/39/31 66/39/31
f 66/39/31 67/40/31 38/40/31
f 39/41/31 38/40/31 67/40/31
f 67/40/31 68/41/31 39/41/31
f 40/42/31 39/41/31 68/41/31
f 68/41/31 69/42/31 40/42/31
f 41/43/31 40/42/31 69/42/31
f 69/42/31 70/43/31 41/43/31
f 42/44/31 41/43/31 70/43/31
f 70/43/31 71/44/31 42/44/31
f 43/45/31 42/44/31 71/44/31
f 71/44/31 72/45/31 43/45/31
f 44/46/31 43/45/31 72/45/31
f 72/45/31 73/46/31 44/46/31
f 45/47/31 44/46/31 73/46/31
f 73/46/31 74/47/31 45/47/31
f 46/48/31 45/47/31 74/47/31
f 74/47/31 75/48/31 46/48/31
f 46/48/32 75/48/32 76/48/32
f 76/48/33 2/48/33 46/48/33
f 66/39/34 37/39/34 19/39/34
f 19/39/35 77/39/35 66/39/35
f 3/3/31 2/2/31 78/2/31
f 78/2/31 79/3/31 3/3/31
f 5/5/31 3/3/31 79/3/31
f 79/3/31 80/5/31 5/5/31
f 7/7/31 5/5/31 80/5/31
f 80/5/31 81/7/31 7/7/31
f 9/9/31 7/7/31 81/7/31
f 81/7/31 82/9/31 9/9/31
f 11/11/36 9/9/36 82/9/36
f 82/9/31 83/11/31 11/11/31
f 13/15/36 11/14/36 83/14/36
f 83/14/31 84/15/31 13/15/31
f 15/17/36 13/15/36 84/15/36
f 84/15/31 85/17/31 15/17/31
f 17/19/36 15/17/36 85/17/36
f 85/17/31 86/19/31 17/19/31
f 19/21/36 17/19/36 86/19/36
f 86/19/31 87/21/31 19/21/31
f 2/48/37 76/48/37 88/48/37
f 88/48/38 78/48/38 2/48/38
f 77/39/39 19/39/39 87/39/39
f 87/39/40 89/39/40 77/39/40
s 2
f 90/86/31 91/87/31 92/88/31
f 92/88/31 93/89/31 90/86/31
s 4
f 94/87/41 95/88/41 96/89/41
f 96/89/41 97/86/41 94/87/41
s 8
f 90/87/42 94/88/42 97/89/42
f 97/89/42 91/86/42 90/87/42
s 16
f 91/87/43 97/88/43 96/89/43
f 96/89/43 92/86/43 91/87/43
s 32
f 92/87/44 96/88/44 95/89/44
f 95/89/44 93/86/44 92/87/44
s 64
f 93/87/45 95/88/45 94/89/45
f 94/89/45 90/86/45 93/87/45
s 2
f 98/86/31 99/87/31 100/88/31
f 100/88/31 101/89/31 98/86/31
s 4
f 102/87/41 103/88/41 104/89/41
f 104/89/41 105/86/41 102/87/41
s 8
f 98/87/46 102/88/46 105/89/46
f 105/89/46 99/86/46 98/87/46
s 16
f 99/87/47 105/88/47 104/89/47
f 104/89/47 100/86/47 99/87/47
s 32
f 100/87/48 104/88/48 103/89/48
f 103/89/48 101/86/48 100/87/48
s 64
f 101/87/49 103/88/49 102/89/49
f 102/89/49 98/86/49 101/87/49
s 2
f 106/86/31 107/87/31 108/88/31
f 108/88/31 109/89/31 106/86/31
s 4
f 110/87/41 111/88/41 112/89/41
f 112/89/41 113/86/41 110/87/41
s 8
f 106/87/50 110/88/50 113/89/50
f 113/89/50 107/86/50 106/87/50
s 16
f 107/87/51 113/88/51 112/89/51
f 112/89/51 108/86/51 107/87/51
s 32
f 108/87/52 112/88/52 111/89/52
f 111/89/52 109/86/52 108/87/52
s 64
f 109/87/53 111/88/53 110/89/53
f 110/89/53 106/86/53 109/87/53
# 188 faces


